<?xml version="1.0" encoding="utf-8"?>
<!DOCTYPE svg PUBLIC "-//W3C//DTD SVG 1.0//EN" "http://www.w3.org/TR/2001/REC-SVG-20010904/DTD/svg10.dtd">
<svg version="1.0" xmlns="http://www.w3.org/2000/svg" width="40px" height="40px" viewBox="0 0 600 600" preserveAspectRatio="xMidYMid meet">
   <defs>
      <linearGradient id="lg0" gradientUnits="userSpaceOnUse" x1="49.166668%" y1="9.666667%" x2="49.166668%" y2="79.5%">
         <stop offset="0%" style="stop-color:rgb(245,144,11);"></stop>
         <stop offset="36%" style="stop-color:rgb(216,126,9);"></stop>
         <stop offset="82%" style="stop-color:rgb(39,22,1);"></stop>
         <stop offset="83%" style="stop-color:rgb(35,21,1);"></stop>
         <stop offset="100%" style="stop-color:rgb(0,0,0);"></stop>
      </linearGradient>
   </defs>
 <g fill="#060300">
  <path fill="url(#lg0)" d="M289.5 481.3 c-1.5 -0.4 -13.6 -6.6 -15.3 -7.9 -0.7 -0.5 2.1 -28.9 2.8 -29.4 0.8 -0.5 1.3 -9.7 4.1 -70 0.5 -11.8 2 -44.2 3.4 -72 1.3 -27.8 2.7 -57.2 3 -65.5 0.9 -24.4 1.3 -27.5 3.6 -27.5 1.7 0 1.9 0.8 1.9 8 l0 8 3 0 3 0 0 -8 c0 -6.2 0.3 -8 1.4 -8 1 0 1.6 1.8 2 5.8 0.6 6.2 0.5 5.3 4.1 81.2 1.3 28.9 2.9 61.3 3.5 72 0.5 10.7 1.5 31.8 2.2 46.9 0.8 19.3 1.6 27.7 2.4 28.6 0.9 0.8 1.4 5.1 1.5 12.9 0.1 6.4 0.5 11.9 1 12.2 0.5 0.2 1.6 -1.2 2.5 -3.3 1.2 -3 1.5 -5.6 1 -12.1 -0.3 -4.5 -0.2 -9 0.3 -10 0.5 -0.9 1.2 -2.5 1.5 -3.4 0.3 -1 1.5 -1.8 2.6 -1.8 1.9 0 2 -0.6 2 -11.2 0 -12.1 -0.7 -14.4 -3.8 -13.6 -1.9 0.5 -2 -0.2 -2.6 -15.1 -0.4 -8.6 -1.1 -31.1 -1.6 -50.1 -1.7 -61.5 -2.9 -102.1 -3.6 -120.7 l-0.7 -18.3 7.1 0 c3.9 0 7.4 0.5 7.7 1 1.3 2 3.5 -1.2 3.5 -4.9 0 -4.7 -1.4 -7.1 -3.2 -5.3 -0.7 0.7 -3.9 1.2 -7.9 1.2 l-6.8 0 -0.5 -4.3 c-0.2 -2.3 -1 -13.2 -1.6 -24.2 -1.4 -26.3 -2.8 -47.5 -4 -61.1 -0.6 -6 -1 -13.1 -1 -15.7 0 -4.4 -0.2 -4.8 -4 -6.7 l-4 -2 0 -16 c0 -11.2 0.3 -16 1.1 -16 1.7 0 175.7 98 179.1 100.8 5.1 4.3 6.8 9.1 6.8 19.2 l0 9 -22.5 0 -22.5 0 -51.5 -29 c-28.3 -15.9 -51.7 -29 -52 -29 -0.3 0 -0.5 63.9 -0.5 142 0 78.1 0.2 142 0.5 142 0.8 0 103.8 -58 105 -59.1 0.5 -0.5 10.5 -0.9 22.2 -0.9 l21.3 0 0 10 c0 11.2 -1.5 15.7 -6.8 20.2 -1.6 1.3 -42.3 24.6 -90.5 51.7 -80.1 45 -88.2 49.3 -93 49.6 -2.8 0.2 -6.1 0.1 -7.2 -0.2z"/>
  <path fill="url(#lg0)" d="M191.5 426.9 c-43.9 -24.7 -81 -45.9 -82.3 -47.2 -1.3 -1.2 -3.3 -3.9 -4.3 -5.9 -1.8 -3.6 -1.9 -7.4 -1.9 -105.8 0 -99.3 0.1 -102.2 2 -105.9 1 -2.1 3.2 -4.9 4.8 -6.2 3.9 -3.4 177 -100.5 180.5 -101.3 l2.7 -0.6 0 13.2 c0 18.7 -0.3 19.9 -5.1 22 l-3.9 1.7 0 7.5 c0 4.1 -0.4 7.7 -0.9 8 -0.4 0.3 -1.4 9 -2 19.3 -0.7 10.3 -1.9 28.3 -2.7 39.8 -0.7 11.6 -1.4 24.3 -1.4 28.3 l0 7.2 -7.8 0 c-4.4 0 -8.3 -0.5 -8.9 -1.1 -2 -2 -3.3 0.1 -3.3 5 l0 4.8 9.5 -0.5 9.5 -0.5 0 7.9 c0 8.4 -2.3 87.1 -4 136.9 -0.6 16.5 -1 35.6 -1 42.5 0 14.9 -0.4 17 -3.5 17 -1.9 0 -2.3 0.7 -2.9 5.3 -0.3 2.8 -0.6 8.4 -0.6 12.4 0 7.1 0 7.2 2.8 7.5 2 0.2 2.8 0.9 3.1 2.8 0.1 1.4 0.7 2.8 1.2 3.1 0.6 0.3 0.8 6.5 0.7 14.1 l-0.3 13.6 -80 -44.9z m62.5 -159 c0 -114.1 -0.3 -143 -1.2 -142.6 -0.7 0.2 -24.9 13.8 -53.8 30 l-52.5 29.6 0 83.1 0 83.1 53 29.9 c29.2 16.5 53.3 29.9 53.8 30 0.4 0 0.7 -64.4 0.7 -143.1z"/>
 </g>
 <g fill="#140c01">
  <path fill="url(#lg0)" d="M350.3 438.8 c-0.4 -0.7 -1.6 -1.4 -2.5 -1.4 -1 -0.1 -1.5 0.2 -1.2 0.7 0.3 0.5 0 0.9 -0.5 0.9 -0.6 0 -1.1 -0.5 -1.1 -1.1 0 -0.8 -0.4 -0.8 -1.4 0 -0.8 0.7 -1.7 0.8 -1.9 0.4 -0.4 -0.7 -6.2 -0.9 -6.2 -0.3 0 0.1 -1.9 0.2 -4.3 0.3 l-4.2 0.2 0 -11.5 c0 -12.3 -0.7 -14.6 -3.8 -13.8 -1.9 0.5 -2 -0.2 -2.6 -15.1 -0.4 -8.6 -1.1 -31.1 -1.6 -50.1 -1.7 -61.5 -2.9 -102.1 -3.6 -120.7 l-0.7 -18.3 7.1 0 c3.9 0 7.4 0.5 7.7 1 1.3 2 3.5 -1.2 3.5 -4.9 0 -4.7 -1.4 -7.1 -3.2 -5.3 -0.7 0.7 -3.9 1.2 -7.9 1.2 l-6.8 0 -0.5 -4.2 c-0.2 -2.4 -1 -13.3 -1.6 -24.3 -1.4 -26.3 -2.8 -47.5 -4 -61.1 -0.6 -6 -1 -13.1 -1 -15.7 0 -4.4 -0.2 -4.8 -4 -6.7 l-4 -2 0 -16 c0 -11.2 0.3 -16 1.1 -16 1.7 0 175.7 98 179.1 100.8 5.1 4.3 6.8 9.1 6.8 19.2 l0 9 -22.5 0 -22.5 0 -51.5 -29 c-28.3 -15.9 -51.7 -29 -52 -29 -0.3 0 -0.5 63.9 -0.5 142 0 78.1 0.2 142 0.5 142 0.8 0 103.8 -58 105 -59.1 0.5 -0.5 10.5 -0.9 22.2 -0.9 l21.3 0 0 10 c0 10.9 -1.4 15.2 -6.2 19.7 -1.3 1.2 -24.6 14.8 -51.9 30.1 -43.7 24.6 -50.1 27.9 -54 27.9 -2.4 0.1 -5.9 0.3 -7.7 0.6 -1.8 0.2 -3.5 0.1 -3.8 -0.4 -0.2 -0.4 -1.6 -0.4 -2.9 0.1 -1.6 0.6 -2.7 0.6 -3.1 -0.1 -0.4 -0.8 -0.9 -0.7 -1.5 0.2 -0.6 1.1 -1.1 1.1 -2.1 0.1 -1.7 -1.7 -3.1 -1.5 -2.4 0.3 0.7 1.8 0 2 -1.1 0.3z"/>
  <path fill="url(#lg0)" d="M212.5 437.9 c0.3 -0.9 -0.2 -1.4 -1.7 -1.4 -2.5 0 -96.2 -52.3 -101 -56.3 -1.6 -1.4 -3.8 -4.2 -4.8 -6.3 -1.9 -3.7 -2 -6.6 -2 -105.9 0 -99.3 0.1 -102.2 2 -105.9 1 -2.1 3.2 -4.9 4.8 -6.2 3.9 -3.4 177 -100.5 180.5 -101.3 l2.7 -0.6 0 13.2 c0 18.7 -0.3 19.9 -5.1 22 l-3.9 1.7 0 7.5 c0 4.1 -0.4 7.7 -0.9 8 -0.4 0.3 -1.4 9 -2 19.3 -0.7 10.3 -1.9 28.3 -2.7 39.8 -0.7 11.6 -1.4 24.3 -1.4 28.3 l0 7.2 -7.8 0 c-4.4 0 -8.3 -0.5 -8.9 -1.1 -2 -2 -3.3 0.1 -3.3 5 l0 4.8 9.5 -0.5 9.5 -0.5 0 7.9 c0 8.4 -2.3 87.1 -4 136.9 -0.6 16.5 -1 35.6 -1 42.5 0 14.9 -0.4 17 -3.5 17 -1.9 0 -2.3 0.7 -2.9 5.3 -0.3 2.8 -0.6 8.5 -0.6 12.5 0 7.2 0 7.2 -2.5 6.8 -1.3 -0.3 -2.9 -0.7 -3.5 -1.1 -0.5 -0.3 -1 0.2 -1 1.2 0 1.5 -0.2 1.6 -1 0.3 -0.5 -0.8 -1 -1.1 -1 -0.6 0 0.5 -0.7 0.2 -1.6 -0.5 -1.4 -1.1 -1.8 -1 -3 0.6 -0.8 1 -1.4 1.4 -1.4 0.7 0 -0.6 -0.7 -0.9 -1.7 -0.5 -1.1 0.4 -1.4 0.3 -0.9 -0.5 0.5 -0.9 0.1 -0.9 -1.8 -0.2 -1.4 0.5 -2.6 0.7 -2.6 0.4 0 -0.4 -0.6 -0.1 -1.4 0.5 -0.9 0.8 -1.6 0.8 -2 0.2 -0.4 -0.6 -1.4 -0.7 -2.3 -0.4 -1 0.4 -1.4 0.2 -1 -0.4 0.4 -0.7 0 -1 -1 -0.8 -1 0.2 -2.2 0.4 -2.8 0.4 -0.5 0.1 -0.3 0.6 0.5 1.2 1.2 0.8 0.9 0.9 -1 0.3 -3.5 -1 -10.1 -1.1 -12.7 -0.2 -1.3 0.4 -2.5 0.3 -2.9 -0.4 -0.5 -0.7 -0.3 -0.8 0.6 -0.3 0.9 0.6 1.1 0.4 0.6 -0.4 -0.6 -0.9 -1.3 -0.8 -2.7 0.5 -1.4 1.3 -1.8 1.4 -1.4 0.3z m41.5 -170 c0 -114.1 -0.3 -143 -1.2 -142.6 -0.7 0.2 -24.9 13.8 -53.8 30 l-52.5 29.6 0 83.1 0 83.1 53 29.9 c29.2 16.5 53.3 29.9 53.8 30 0.4 0 0.7 -64.4 0.7 -143.1z"/>
  <path fill="url(#lg0)" d="M283.7 438.3 c-0.5 -0.4 -1.8 -0.8 -3 -0.8 -2.1 0 -2.2 -0.3 -1.9 -10.5 0.1 -5.8 0.7 -19.7 1.2 -31 2.5 -51.2 3.1 -63.9 5.5 -117.5 3.2 -71 3.1 -69.5 5.6 -69.5 1.7 0 1.9 0.8 1.9 8 l0 8 3 0 3 0 0 -8 c0 -6.2 0.3 -8 1.4 -8 1.6 0 2.2 4.6 3.1 23 0.3 6.3 1.6 34.9 3 63.5 1.3 28.6 2.9 61.5 3.5 73 3.2 66.9 3.2 66.2 2 68.5 -0.7 1.3 -1.5 1.9 -1.9 1.4 -0.7 -1.1 -6.1 -1.3 -6.1 -0.2 0 0.7 -5.3 0.3 -6.8 -0.6 -0.4 -0.2 -1.4 -0.1 -2.2 0.4 -0.7 0.4 -2.4 0.4 -3.7 -0.1 -1.5 -0.5 -2.3 -0.5 -2.3 0.2 0 0.6 -0.6 0.6 -1.9 -0.1 -1.3 -0.7 -2 -0.7 -2.3 0.1 -0.2 0.6 -0.7 0.7 -1.1 0.2z"/>
 </g>
 <g fill="#221402">
  <path fill="url(#lg0)" d="M354.3 418.7 c0.1 -0.5 -0.8 -1.1 -2 -1.3 -1.3 -0.2 -2.3 0 -2.3 0.6 0 0.6 -0.9 0.6 -2.5 0 -1.8 -0.7 -2.5 -0.6 -2.5 0.3 0 0.8 -0.3 0.7 -0.9 -0.2 -0.8 -1.2 -1.4 -1.3 -3.6 -0.3 -1.7 0.8 -2.4 0.8 -2 0.1 0.5 -0.7 -0.4 -0.9 -3 -0.5 -4.9 0.8 -8.3 -0.2 -9.1 -2.6 -0.4 -1.4 -1.2 -1.9 -2.9 -1.6 -2.3 0.5 -2.3 0.4 -2.9 -15.1 -0.4 -8.6 -1.1 -31.1 -1.6 -50.1 -1.7 -61.5 -2.9 -102.1 -3.6 -120.7 l-0.7 -18.3 7.1 0 c3.9 0 7.4 0.5 7.7 1 1.3 2 3.5 -1.2 3.5 -4.9 0 -4.7 -1.4 -7.1 -3.2 -5.3 -0.7 0.7 -3.9 1.2 -7.9 1.2 l-6.8 0 -0.5 -4.2 c-0.2 -2.4 -1 -13.3 -1.6 -24.3 -1.4 -26.3 -2.8 -47.5 -4 -61.1 -0.6 -6 -1 -13.1 -1 -15.7 0 -4.4 -0.2 -4.8 -4 -6.7 l-4 -2 0 -16 c0 -11.2 0.3 -16 1.1 -16 1.7 0 175.7 98 179.1 100.8 5.1 4.3 6.8 9.1 6.8 19.2 l0 9 -22.5 0 -22.5 0 -51.5 -29 c-28.3 -15.9 -51.7 -29 -52 -29 -0.3 0 -0.5 63.9 -0.5 142 0 78.1 0.2 142 0.5 142 0.8 0 103.8 -58 105 -59.1 0.5 -0.5 10.5 -0.9 22.2 -0.9 l21.3 0 0 10 c0 10.8 -1.4 15.2 -6.2 19.7 -1.2 1.2 -10.6 6.9 -20.8 12.6 -10.2 5.7 -25.3 14.3 -33.7 19 -8.3 4.7 -14.9 7.9 -14.7 7.2 0.4 -1 -0.2 -1.1 -3 -0.5 -1.9 0.4 -3.7 0.6 -4 0.3 -1.1 -1.1 -6.8 -0.8 -7.3 0.4 -0.3 0.7 -0.9 1.3 -1.5 1.3 -0.5 0 -0.6 -0.4 -0.3 -1 0.3 -0.5 -0.2 -1.1 -1.2 -1.1 -1 -0.1 -3 -0.3 -4.5 -0.4 -1.8 -0.3 -2.8 0.1 -3.1 1.3 -0.4 1.6 -0.5 1.6 -0.6 0 -0.1 -1.3 -0.8 -1.6 -3.3 -1.2 -4.1 0.6 -15 0.5 -15.6 -0.1 -0.3 -0.3 -1.2 0.1 -2 0.8 -1.3 1 -1.4 0.9 -0.7 -0.3 0.7 -1.3 0.6 -1.3 -0.7 -0.2 -0.9 0.7 -1.9 0.9 -2.2 0.4 -0.3 -0.5 -1.7 -0.7 -3.1 -0.5 -1.3 0.3 -2.3 0.9 -2 1.2 0.2 0.4 -0.2 0.8 -1 0.8 -0.8 0 -1.3 -0.5 -1.2 -1z"/>
  <path fill="url(#lg0)" d="M216.5 417.9 c0.5 -1.3 -0.2 -1.6 -4 -1.5 -2.5 0 -4.5 0.4 -4.5 0.9 0 0.4 -0.8 0.4 -1.7 -0.2 -1 -0.5 -2.6 -0.5 -4 0 -1.3 0.5 -2.5 0.4 -2.8 -0.1 -0.4 -0.6 -1.5 -1 -2.6 -1 -1.1 0 -1.7 0.5 -1.4 1 0.4 0.6 -0.5 0.5 -2 -0.2 -1.8 -0.8 -2.9 -0.8 -3.6 -0.1 -0.8 0.8 -2 0.8 -4 0.1 -2.2 -0.7 -3.3 -0.7 -4.4 0.2 -1.1 0.9 -1.8 1 -2.9 0.1 -0.7 -0.6 -2.4 -1 -3.7 -0.9 -2.6 0.1 -61.5 -32.6 -65.7 -36.5 -1.3 -1.2 -3.3 -3.9 -4.3 -5.9 -1.8 -3.6 -1.9 -7.4 -1.9 -105.8 0 -99.3 0.1 -102.2 2 -105.9 1 -2.1 3.2 -4.9 4.8 -6.2 3.9 -3.4 177 -100.5 180.5 -101.3 l2.7 -0.6 0 13.2 c0 18.7 -0.3 19.9 -5.1 22 l-3.9 1.7 0 7.5 c0 4.1 -0.4 7.7 -0.9 8 -0.4 0.3 -1.4 9 -2 19.3 -0.7 10.3 -1.9 28.3 -2.7 39.8 -0.7 11.6 -1.4 24.3 -1.4 28.3 l0 7.2 -7.8 0 c-4.4 0 -8.3 -0.5 -8.9 -1.1 -2 -2 -3.3 0.1 -3.3 5 l0 4.8 9.5 -0.5 9.5 -0.5 0 7.9 c0 8.4 -2.3 87.1 -4 136.9 -0.6 16.5 -1 35.6 -1 42.5 0 15.1 -0.4 17 -3.6 17 -1.7 0 -2.4 0.6 -2.4 2 0 1.1 -0.7 2 -1.5 2 -0.8 0 -1.5 0.4 -1.5 0.9 0 1.1 -2.6 0.8 -3.7 -0.4 -0.4 -0.4 -0.2 -0.5 0.6 0 1 0.6 1.2 0.4 0.7 -0.4 -0.6 -0.9 -1.2 -0.8 -2.6 0.4 -1.4 1.2 -2 1.3 -2.6 0.4 -0.5 -0.8 -0.3 -1 0.6 -0.4 0.9 0.5 1.1 0.4 0.6 -0.4 -0.5 -0.7 -1.3 -0.8 -2.4 -0.2 -0.9 0.5 -2.6 0.5 -3.8 0.1 -1.2 -0.5 -2.4 -0.6 -2.7 -0.4 -0.7 0.8 -11.7 1.1 -11.7 0.4 0 -0.3 -1.6 -0.5 -3.5 -0.5 -2.4 0 -3.5 0.5 -3.6 1.5 0 1 -0.3 0.9 -0.8 -0.4 -0.5 -1.3 -1 -1.6 -1.4 -0.9 -0.5 0.8 -1.7 0.9 -3.9 0.3 -2.5 -0.8 -3.4 -0.6 -4.5 0.8 -1 1.4 -1.2 1.4 -0.8 0.1z m37.5 -150 c0 -114.1 -0.3 -143 -1.2 -142.6 -0.7 0.2 -24.9 13.8 -53.8 30 l-52.5 29.6 0 83.1 0 83.1 53 29.9 c29.2 16.5 53.3 29.9 53.8 30 0.4 0 0.7 -64.4 0.7 -143.1z"/>
  <path fill="url(#lg0)" d="M280.1 417.6 c-1 -1.2 -1.1 -5.6 -0.2 -21.3 1.3 -23.9 2.3 -43.5 5.6 -117.8 3.2 -71 3.1 -69.5 5.6 -69.5 1.7 0 1.9 0.8 1.9 8 l0 8 3 0 3 0 0 -8 c0 -6.2 0.3 -8 1.4 -8 1 0 1.6 1.8 2 5.8 0.6 6.2 0.5 5.2 4.1 81.2 1.4 28.9 2.9 61.5 3.5 72.5 2.2 45.1 2.3 49.2 1 50 -0.9 0.6 -1.1 0.4 -0.5 -0.4 0.9 -1.5 -3.6 -1.1 -4.7 0.4 -0.5 0.6 -1.2 0.5 -2 -0.3 -1.4 -1.4 -3.2 -1.6 -2.3 -0.2 0.3 0.6 -0.1 1 -1 1 -0.9 0 -1.4 -0.3 -1.2 -0.7 0.3 -0.5 -1.1 -0.9 -3 -1.1 -2.5 -0.1 -3.2 0.1 -2.7 1 0.6 1 0.4 1 -0.7 0.2 -1.7 -1.3 -10.2 -1.5 -11 -0.2 -0.3 0.5 -1.1 0.2 -1.8 -0.6z"/>
 </g>
 <g fill="#331e02">
  <path fill="url(#lg0)" d="M325.3 399.3 c-3.4 -0.3 -4.4 -0.8 -4.8 -2.6 -0.2 -1.2 -0.9 -21.1 -1.5 -44.2 -1.3 -51.6 -2.7 -99.9 -3.6 -124.7 l-0.7 -18.8 7.1 0 c3.9 0 7.4 0.5 7.7 1 1.3 2 3.5 -1.2 3.5 -4.9 0 -4.7 -1.4 -7.1 -3.2 -5.3 -0.7 0.7 -3.9 1.2 -7.9 1.2 l-6.8 0 -0.5 -4.2 c-0.2 -2.4 -1 -13.3 -1.6 -24.3 -1.4 -26.3 -2.8 -47.5 -4 -61.1 -0.6 -6 -1 -13.1 -1 -15.7 0 -4.4 -0.2 -4.8 -4 -6.7 l-4 -2 0 -16 c0 -11.2 0.3 -16 1.1 -16 1.7 0 175.7 98 179.1 100.8 5.1 4.3 6.8 9.1 6.8 19.2 l0 9 -22.5 0 -22.5 0 -51.5 -29 c-28.3 -15.9 -51.7 -29 -52 -29 -0.3 0 -0.5 61.4 -0.5 136.4 l0 136.4 -3.5 0.4 c-1.9 0.2 -3.5 0 -3.5 -0.4 0 -0.4 -0.5 -0.8 -1.1 -0.8 -0.5 0 -0.7 0.5 -0.4 1 0.3 0.6 0.5 0.9 0.3 0.8 -0.2 -0.1 -2.2 -0.3 -4.5 -0.5z"/>
  <path fill="url(#lg0)" d="M361.5 399 c-0.4 -0.6 -0.5 -1.3 -0.4 -1.4 0.2 -0.2 18.6 -10.6 40.9 -23.1 22.3 -12.5 40.9 -23.1 41.5 -23.6 0.5 -0.5 10.5 -0.9 22.2 -0.9 l21.3 0 0 10 c0 11.2 -1.5 15.7 -6.8 20.2 -1.6 1.3 -9.6 6.2 -17.8 10.8 l-14.9 8.4 -16 0.1 c-8.8 0 -16.3 -0.4 -16.6 -0.9 -0.4 -0.5 -1.2 -0.5 -1.9 -0.1 -1.6 1 -11.2 1.1 -12.8 0.1 -0.7 -0.4 -1.2 -0.2 -1.2 0.4 0 0.6 -0.4 0.9 -0.8 0.6 -0.7 -0.4 -4.6 -0.6 -12.4 -0.6 -1 0 -2.4 0 -3 0 -0.7 -0.1 -4.3 0.1 -8 0.2 -3.8 0.2 -6.8 -0.1 -6.8 -0.5 0 -0.5 -0.7 -0.6 -1.5 -0.3 -0.8 0.3 -2.1 0.9 -2.9 1.2 -0.8 0.3 -1.7 0 -2.1 -0.6z"/>
  <path fill="url(#lg0)" d="M150 398.1 c0 -0.9 -0.8 -1.2 -2.5 -0.9 -1.3 0.3 -2.6 0 -2.9 -0.6 -0.3 -0.7 -0.5 -0.7 -0.5 0 -0.2 2.4 -6.4 0.1 -19.1 -7.1 -15 -8.5 -17.3 -10.3 -20.1 -15.7 -1.8 -3.6 -1.9 -7.4 -1.9 -105.8 0 -99.3 0.1 -102.2 2 -105.9 1 -2.1 3.2 -4.9 4.8 -6.2 3.9 -3.4 177 -100.5 180.5 -101.3 l2.7 -0.6 0 13.2 c0 18.7 -0.3 19.9 -5.1 22 l-3.9 1.7 0 7.5 c0 4.1 -0.4 7.7 -0.9 8 -0.4 0.3 -1.4 9 -2 19.3 -0.7 10.3 -1.9 28.3 -2.7 39.8 -0.7 11.6 -1.4 24.3 -1.4 28.3 l0 7.2 -7.8 0 c-4.4 0 -8.3 -0.5 -8.9 -1.1 -2 -2 -3.3 0.1 -3.3 5 l0 4.8 9.5 -0.5 9.5 -0.5 0 8.4 c0 4.6 -0.7 29.5 -1.5 55.4 -0.8 25.9 -2 64.8 -2.6 86.6 l-1.2 39.5 -8.1 -0.2 -8.1 -0.2 -0.3 -136.7 c-0.2 -108.7 -0.5 -136.6 -1.5 -136.2 -0.6 0.2 -24.8 13.8 -53.7 30 l-52.5 29.6 0 83.1 0 83.2 40.3 22.6 c22.1 12.4 40.2 22.9 40.2 23.2 0 0.3 -1.7 0.6 -3.7 0.6 -2.1 0 -6 0.4 -8.7 0.8 -3.3 0.5 -4.6 0.4 -4.1 -0.3 0.9 -1.5 -0.8 -1.4 -2.3 0.1 -0.7 0.7 -1.2 0.8 -1.2 0.3 0 -1.1 -31.5 -1.3 -32.6 -0.2 -0.4 0.3 -1.4 0.3 -2.3 -0.1 -0.9 -0.5 -4.1 -0.7 -7.1 -0.5 -7.6 0.3 -9.2 0.3 -11.5 -0.1 -1.1 -0.2 -2.3 0.2 -2.7 0.8 -0.5 0.7 -0.8 0.7 -0.8 -0.3z"/>
  <path fill="url(#lg0)" d="M280.5 385.5 c0.3 -7.1 1 -21.1 1.5 -31 0.5 -9.9 2.1 -43.9 3.5 -75.5 3.2 -71.5 3.1 -70 5.6 -70 1.7 0 1.9 0.8 1.9 8 l0 8 3 0 3 0 0 -8 c0 -6.2 0.3 -8 1.4 -8 1.6 0 2.2 4.6 3.1 23 0.3 6.3 1.6 34.9 3 63.5 1.3 28.6 3 62.4 3.6 75 0.6 12.7 1 24.1 0.8 25.5 l-0.4 2.5 -15.3 0 -15.2 0 0.5 -13z"/>
 </g>
 <g fill="#432703">
  <path fill="url(#lg0)" d="M336.8 379.5 c-0.4 -0.4 -4.3 -0.7 -8.8 -0.7 -4.4 0 -8 0 -8 -0.1 -0.1 -0.2 -1.6 -52.2 -2.9 -98.7 -0.6 -19 -1.3 -42.7 -1.7 -52.7 l-0.7 -18.3 7.1 0 c3.9 0 7.4 0.5 7.7 1 1.3 2 3.5 -1.2 3.5 -4.9 0 -4.7 -1.4 -7.1 -3.2 -5.3 -0.7 0.7 -3.9 1.2 -7.9 1.2 l-6.8 0 -0.5 -4.2 c-0.2 -2.4 -1 -13.3 -1.6 -24.3 -1.4 -26.3 -2.8 -47.5 -4 -61.1 -0.6 -6 -1 -13.1 -1 -15.7 0 -4.4 -0.2 -4.8 -4 -6.7 l-4 -2 0 -16 c0 -11.2 0.3 -16 1.1 -16 1.7 0 175.7 98 179.1 100.8 5.1 4.3 6.8 9.1 6.8 19.2 l0 9 -22.5 0 -22.5 0 -51.5 -29 c-28.3 -15.9 -51.7 -29 -52 -29 -0.3 0 -0.6 57.2 -0.7 127.1 -0.2 69.9 -0.6 126.7 -1 126.4z"/>
  <path fill="url(#lg0)" d="M398.1 379 c-3.2 -0.5 -2.8 -0.8 10 -8 7.4 -4.1 18.8 -10.5 25.3 -14.2 l11.9 -6.8 20.9 0 20.8 0 0 10 c0 11.2 -2.1 17.3 -6.3 18.9 -2.9 1 -64.9 0.7 -66.7 -0.4 -0.9 -0.5 -1.1 -0.4 -0.6 0.3 0.9 1.4 -2.3 1.5 -7.6 0.3 -2 -0.5 -3.8 -0.6 -4 -0.2 -0.2 0.3 -1.8 0.4 -3.7 0.1z"/>
  <path fill="url(#lg0)" d="M180.7 378.4 c-0.3 -0.4 -16.3 -0.7 -35.4 -0.8 -19.1 -0.1 -35.4 -0.5 -36.2 -1 -1 -0.6 -1.2 -0.5 -0.7 0.2 0.4 0.7 0.2 1 -0.7 0.6 -0.7 -0.2 -2.1 -2.1 -3 -4 -1.6 -3.2 -1.7 -12.4 -1.7 -105.5 0 -99.2 0.1 -102.1 2 -105.8 1 -2.1 3.2 -4.9 4.8 -6.2 3.9 -3.4 177 -100.5 180.5 -101.3 l2.7 -0.6 0 13.2 c0 18.7 -0.3 19.9 -5.1 22 l-3.9 1.7 0 7.5 c0 4.1 -0.4 7.7 -0.9 8 -0.4 0.3 -1.4 9 -2 19.3 -0.7 10.3 -1.9 28.3 -2.7 39.8 -0.7 11.6 -1.4 24.3 -1.4 28.3 l0 7.2 -7.8 0 c-4.4 0 -8.3 -0.5 -8.9 -1.1 -2 -2 -3.3 0.1 -3.3 5 l0 4.8 9.5 -0.5 9.5 -0.5 0 9.9 c0 5.5 -0.5 22.3 -1 37.4 -0.5 15.1 -1.4 45.5 -2 67.5 -0.5 22 -1.3 43.5 -1.6 47.7 -0.5 6.8 -0.8 7.6 -2.5 7.3 -1 -0.2 -2.4 -0.7 -3.1 -1.1 -0.6 -0.4 -0.8 -0.3 -0.5 0.3 0.4 0.6 -1.6 1 -5.3 0.9 l-6 0 0 -126.9 c0 -101.1 -0.3 -126.8 -1.2 -126.4 -0.7 0.2 -24.9 13.8 -53.8 30 l-52.5 29.6 0 83.1 0 83.2 22.9 12.8 c12.6 7.1 23.4 13.5 24 14.1 0.9 1 0.8 1.1 -0.5 0.1 -1.1 -0.9 -1.8 -0.9 -2.7 0 -0.8 0.8 -1.5 0.8 -2.6 -0.1 -1.1 -0.9 -2 -1 -3.5 -0.2 -2.3 1.3 -2.6 1.3 -3.4 0.5z"/>
  <path fill="url(#lg0)" d="M281.4 366 c1.6 -31 5.6 -115.9 6.1 -129.5 0.9 -24.4 1.3 -27.5 3.6 -27.5 1.7 0 1.9 0.8 1.9 8 l0 8 3 0 3 0 0 -8 c0 -6.2 0.3 -8 1.4 -8 1.8 0 2.2 4.1 4.1 44.5 0.8 17.6 2.2 46.6 3 64.5 0.9 17.9 1.9 38.8 2.3 46.6 l0.7 14.1 -14.9 -0.1 -14.9 -0.1 0.7 -12.5z"/>
 </g>
 <g fill="#543104">
  <path fill="url(#lg0)" d="M427.5 360.9 c-0.2 -0.3 3.7 -2.9 8.7 -5.7 l9.1 -5.2 20.9 0 20.9 0 -0.3 5.8 -0.3 5.7 -29.3 0 c-16.2 0 -29.5 -0.3 -29.7 -0.6z"/>
  <path fill="url(#lg0)" d="M257.3 360.2 l-3.3 -0.3 0 -117.6 c0 -93.6 -0.3 -117.4 -1.2 -117 -0.7 0.2 -24.9 13.8 -53.8 30 l-52.5 29.6 -0.3 83 -0.2 83 7.5 4.2 c4.1 2.2 7.5 4.2 7.5 4.3 0 0.1 -13 0.2 -29 0.2 l-29 -0.1 0 -96.8 c0 -94.1 0.1 -96.9 2 -100.6 1 -2.1 3.2 -4.9 4.8 -6.2 3.9 -3.4 177 -100.5 180.5 -101.3 l2.7 -0.6 0 13.2 c0 18.7 -0.3 19.9 -5.1 22 l-3.9 1.7 0 7.5 c0 4.1 -0.4 7.7 -0.9 8 -0.4 0.3 -1.4 9 -2 19.3 -0.7 10.3 -1.9 28.3 -2.7 39.8 -0.7 11.6 -1.4 24.3 -1.4 28.3 l0 7.2 -7.8 0 c-4.4 0 -8.3 -0.5 -8.9 -1.1 -2 -2 -3.3 0.1 -3.3 5 l0 4.8 9.5 -0.5 9.5 -0.5 0 9.4 c0 5.2 -0.4 22.2 -1 37.9 -0.5 15.7 -1.4 45.3 -2 65.9 -0.6 20.6 -1.3 37.7 -1.5 38 -0.6 0.5 -9.7 0.7 -14.2 0.3z"/>
  <path fill="url(#lg0)" d="M282.8 359.9 c-0.7 -0.5 -0.2 -18.2 1.6 -56 1.5 -30.5 2.9 -61.5 3.2 -68.9 0.8 -22.8 1.3 -26 3.5 -26 1.7 0 1.9 0.8 1.9 8 l0 8 3 0 3 0 0 -8 c0 -6.2 0.3 -8 1.4 -8 1.6 0 2.2 4.7 3.1 23.5 0.3 6.6 1.7 34.7 3 62.3 2.9 58.3 3 65.1 1.3 65.4 -3.7 0.5 -24.1 0.2 -25 -0.3z"/>
  <path fill="url(#lg0)" d="M318.7 336.2 c-1.1 -39.1 -2.5 -88 -3.3 -108.4 l-0.7 -18.8 7.1 0 c3.9 0 7.4 0.5 7.7 1 1.3 2 3.5 -1.2 3.5 -4.9 0 -4.7 -1.4 -7.1 -3.2 -5.3 -0.7 0.7 -3.9 1.2 -7.9 1.2 l-6.8 0 -0.5 -4.2 c-0.2 -2.4 -1 -13.3 -1.6 -24.3 -1.4 -26.3 -2.8 -47.5 -4 -61.1 -0.6 -6 -1 -13.1 -1 -15.7 0 -4.4 -0.2 -4.8 -4 -6.7 l-4 -2 0 -16 c0 -11.2 0.3 -16 1.1 -16 1.7 0 175.7 98 179.1 100.8 5.1 4.3 6.8 9.1 6.8 19.2 l0 9 -22.5 0 -22.5 0 -51.5 -29 c-28.3 -15.9 -51.7 -29 -52 -29 -0.3 0 -0.6 52.8 -0.7 117.3 l-0.3 117.2 -9.1 0.2 -9.1 0.3 -0.6 -24.8z"/>
 </g>
 <g fill="#6c3f05">
  <path fill="url(#lg0)" d="M256.3 339.2 l-2.3 -0.3 0 -107.1 c0 -85.2 -0.3 -106.9 -1.2 -106.5 -0.7 0.2 -24.9 13.8 -53.8 30 l-52.5 29.6 -0.3 76.8 -0.2 76.9 -21.3 -0.2 -21.2 -0.1 -0.3 -86.2 c-0.2 -83.9 -0.2 -86.3 1.8 -90 1 -2.1 3.2 -4.9 4.8 -6.2 3.9 -3.4 177 -100.5 180.5 -101.3 l2.7 -0.6 0 13.2 c0 18.7 -0.3 19.9 -5.1 22 l-3.9 1.7 0 7.5 c0 4.1 -0.4 7.7 -0.9 8 -0.4 0.3 -1.4 9 -2 19.3 -0.7 10.3 -1.9 28.3 -2.7 39.8 -0.7 11.6 -1.4 24.3 -1.4 28.3 l0 7.2 -7.8 0 c-4.4 0 -8.3 -0.5 -8.9 -1.1 -2 -2 -3.3 0.1 -3.3 5 l0 4.8 9.5 -0.5 9.5 -0.5 0 9.4 c0 5.2 -0.7 29.2 -1.5 53.4 -0.8 24.2 -1.5 49.4 -1.5 56 l0 12 -7.3 0 c-3.9 0 -8.2 -0.1 -9.4 -0.3z"/>
  <path fill="url(#lg0)" d="M283.3 338.3 c-0.5 -1.3 4.3 -110.5 5.3 -123 0.5 -5.4 0.8 -6.3 2.5 -6.3 1.7 0 1.9 0.8 1.9 8 l0 8 3 0 3 0 0 -8 c0 -6.2 0.3 -8 1.4 -8 1 0 1.6 1.8 2 5.8 0.6 6.1 0.6 6.6 3.6 70.7 1.1 23.1 2.2 44.8 2.4 48.2 l0.5 6.2 -12.6 -0.2 c-8.9 -0.1 -12.7 -0.6 -13 -1.4z"/>
  <path fill="url(#lg0)" d="M318.6 327.7 c-0.4 -6.7 -1.1 -28.2 -1.6 -47.7 -0.5 -19.5 -1.3 -43.5 -1.6 -53.2 l-0.7 -17.8 7.1 0 c3.9 0 7.4 0.5 7.7 1 1.3 2 3.5 -1.2 3.5 -4.9 0 -4.7 -1.4 -7.1 -3.2 -5.3 -0.7 0.7 -3.9 1.2 -7.9 1.2 l-6.8 0 -0.5 -4.2 c-0.2 -2.4 -1 -13.3 -1.6 -24.3 -1.4 -26.3 -2.8 -47.5 -4 -61.1 -0.6 -6 -1 -13.1 -1 -15.7 0 -4.4 -0.2 -4.8 -4 -6.7 l-4 -2 0 -16 c0 -11.2 0.3 -16 1.1 -16 1.7 0 175.7 98 179.1 100.8 5.1 4.3 6.8 9.1 6.8 19.2 l0 9 -22.5 0 -22.5 0 -51.5 -29 c-28.3 -16 -51.7 -29 -52 -29 -0.3 0 -0.6 48 -0.7 106.8 l-0.3 106.7 -9.1 0.2 -9.1 0.3 -0.7 -12.3z"/>
 </g>
 <g fill="#884f06">
  <path fill="url(#lg0)" d="M264.1 312.9 c-2.4 -0.3 -5.7 -0.5 -7.3 -0.4 l-2.8 0.3 0 -94 c0 -74.8 -0.3 -93.9 -1.2 -93.5 -0.7 0.2 -24.9 13.8 -53.8 30 l-52.5 29.6 -0.5 63.4 -0.5 63.4 -5.7 0 c-3.1 0.1 -6.1 0.4 -6.7 0.7 -0.5 0.4 -1.2 0.3 -1.4 -0.1 -0.3 -0.5 -6.9 -0.7 -14.6 -0.7 l-14.1 0.2 0 -72.9 c0 -70.5 0.1 -73.1 2 -76.8 1 -2.1 3.2 -4.9 4.8 -6.2 3.9 -3.4 177 -100.5 180.5 -101.3 l2.7 -0.6 0 13.2 c0 18.7 -0.3 19.9 -5.1 22 l-3.9 1.7 0 7.5 c0 4.1 -0.4 7.7 -0.9 8 -0.4 0.3 -1.4 9 -2 19.3 -0.7 10.3 -1.9 28.3 -2.7 39.8 -0.7 11.6 -1.4 24.3 -1.4 28.3 l0 7.2 -7.8 0 c-4.4 0 -8.3 -0.5 -8.9 -1.1 -2 -2 -3.3 0.1 -3.3 5 l0 4.8 9.5 -0.5 9.5 -0.5 0 10.4 c-0.1 20.3 -2.8 91.7 -3.5 92.9 -0.4 0.6 -1.3 0.9 -2 0.6 -0.8 -0.3 -1.5 -0.2 -1.7 0.2 -0.2 0.4 -2.3 0.5 -4.7 0.1z"/>
  <path fill="url(#lg0)" d="M324 313.2 c-2.5 -0.2 -4.9 -0.7 -5.3 -1.1 -0.4 -0.4 -1.2 -15.4 -1.7 -33.2 -0.5 -17.8 -1.2 -40.8 -1.6 -51.1 l-0.7 -18.8 7.1 0 c3.9 0 7.4 0.5 7.7 1 1.3 2 3.5 -1.2 3.5 -4.9 0 -4.7 -1.4 -7.1 -3.2 -5.3 -0.7 0.7 -3.9 1.2 -7.9 1.2 l-6.8 0 -0.5 -4.2 c-0.2 -2.4 -1 -13.3 -1.6 -24.3 -1.4 -26.3 -2.8 -47.5 -4 -61.1 -0.6 -6 -1 -13.1 -1 -15.7 0 -4.4 -0.2 -4.8 -4 -6.7 l-4 -2 0 -16 c0 -11.2 0.3 -16 1.1 -16 1.7 0 175.7 98 179.1 100.8 5.1 4.3 6.8 9.1 6.8 19.2 l0 9 -22.5 0 -22.5 0 -51.5 -29 c-28.3 -16 -51.7 -29 -52 -29 -0.3 0 -0.5 42.1 -0.5 93.5 l0 93.6 -3.8 -0.2 c-2.1 -0.2 -4.2 -0.1 -4.7 0.2 -0.6 0.2 -3 0.3 -5.5 0.1z"/>
  <path fill="url(#lg0)" d="M284.4 303.5 c0.3 -4.9 1.3 -25.4 2.1 -45.5 2.1 -48.2 2.2 -49 4.6 -49 1.7 0 1.9 0.8 1.9 8 l0 8 3 0 3 0 0 -8 c0 -6.2 0.3 -8 1.4 -8 1.8 0 2.2 4.1 4.1 44.5 0.8 17.6 1.8 38 2.2 45.3 0.5 10.9 0.4 13.2 -0.8 13.4 -0.8 0.1 -6.1 0.2 -11.8 0.3 l-10.3 0.1 0.6 -9.1z"/>
 </g>
 <g fill="#a46007">
  <path fill="url(#lg0)" d="M261.7 285.4 c-0.3 -0.3 -2.2 -0.6 -4.1 -0.6 l-3.6 0 0 -80 c0 -63.6 -0.3 -79.9 -1.2 -79.5 -0.7 0.2 -24.9 13.8 -53.8 30 l-52.5 29.6 -0.3 49.5 -0.2 49.6 -8.3 0.1 c-4.5 0.1 -8.6 0.1 -9 0 -0.8 -0.1 -10.6 -0.1 -17.2 0 -2.2 0 -5 0 -6.2 0 l-2.3 -0.1 0 -59 c0 -56.7 0.1 -59.2 2 -62.9 1 -2.1 3.2 -4.9 4.8 -6.2 3.9 -3.4 177 -100.5 180.5 -101.3 l2.7 -0.6 0 13.2 c0 18.7 -0.3 19.9 -5.1 22 l-3.9 1.7 0 7.5 c0 4.1 -0.4 7.7 -0.9 8 -0.4 0.3 -1.4 9 -2 19.3 -0.7 10.3 -1.9 28.3 -2.7 39.8 -0.7 11.6 -1.4 24.3 -1.4 28.3 l0 7.2 -7.8 0 c-4.4 0 -8.3 -0.5 -8.9 -1.1 -2 -2 -3.3 0.1 -3.3 5 l0 4.8 9.7 -0.5 9.6 -0.5 -0.7 26.4 c-0.3 14.5 -0.9 31.7 -1.3 38.2 l-0.6 11.7 -4.7 -0.1 c-2.6 -0.1 -5.2 0.1 -5.7 0.4 -0.6 0.4 -1.3 0.4 -1.6 0.1z"/>
  <path fill="url(#lg0)" d="M285.8 285.5 c-0.5 -1 1.8 -58 2.8 -70.2 0.5 -5.4 0.8 -6.3 2.5 -6.3 1.7 0 1.9 0.8 1.9 8 l0 8 3 0 3 0 0 -8 c0 -6.2 0.3 -8 1.4 -8 1 0 1.6 1.8 2 6.3 1 10.5 3.6 69 3.1 69.5 -0.7 0.7 -16.1 0.5 -17.3 -0.2 -0.6 -0.3 -1.2 -0.1 -1.4 0.6 -0.3 0.7 -0.7 0.8 -1 0.3z"/>
  <path fill="url(#lg0)" d="M316.6 264 c-0.3 -11.8 -0.9 -29 -1.3 -38.2 l-0.6 -16.8 7.1 0 c3.9 0 7.4 0.5 7.7 1 1.3 2 3.5 -1.2 3.5 -4.9 0 -4.7 -1.4 -7.1 -3.2 -5.3 -0.7 0.7 -3.9 1.2 -7.9 1.2 l-6.8 0 -0.5 -4.2 c-0.2 -2.4 -1 -13.3 -1.6 -24.3 -1.4 -26.3 -2.8 -47.5 -4 -61.1 -0.6 -6 -1 -13.1 -1 -15.7 0 -4.4 -0.2 -4.8 -4 -6.7 l-4 -2 0 -16 c0 -11.2 0.3 -16 1.1 -16 1.7 0 175.7 98 179.1 100.8 5.1 4.3 6.8 9.1 6.8 19.2 l0 9 -22.5 0 -22.5 0 -51.5 -29 c-28.3 -15.9 -51.7 -29 -52 -29 -0.3 0 -0.5 35.9 -0.5 79.8 l0 79.7 -10.4 0 -10.3 0 -0.7 -21.5z"/>
 </g>
 <g fill="#bf7009">
  <path fill="url(#lg0)" d="M287.8 255.9 c-1 -0.6 -0.5 -26.3 0.8 -40.6 0.5 -5.4 0.8 -6.3 2.5 -6.3 1.7 0 1.9 0.8 1.9 8 l0 8 3 0 3 0 0 -8 c0 -6.2 0.3 -8 1.4 -8 1 0 1.6 1.8 2 6.3 1 9.5 2.2 40.7 1.6 40.7 -4.3 0.5 -15.4 0.3 -16.2 -0.1z"/>
  <path fill="url(#lg0)" d="M316 247.9 c0 -4.7 -0.3 -15.4 -0.7 -23.7 l-0.6 -15.2 7.1 0 c3.9 0 7.4 0.5 7.7 1 1.3 2 3.5 -1.2 3.5 -4.9 0 -4.7 -1.4 -7.1 -3.2 -5.3 -0.7 0.7 -3.9 1.2 -7.9 1.2 l-6.8 0 -0.5 -4.2 c-0.2 -2.4 -1 -13.3 -1.6 -24.3 -1.4 -26.3 -2.8 -47.5 -4 -61.1 -0.6 -6 -1 -13.1 -1 -15.7 0 -4.4 -0.2 -4.8 -4 -6.7 l-4 -2 0 -16 c0 -11.2 0.3 -16 1.1 -16 1.7 0 175.7 98 179.1 100.8 5.1 4.3 6.8 9.1 6.8 19.2 l0 9 -22.5 0 -22.5 0 -51.5 -29 c-28.3 -15.9 -51.7 -29 -52 -29 -0.3 0 -0.5 29.4 -0.5 65.3 l0 65.2 -11 0 -11 0 0 -8.6z"/>
  <path fill="url(#lg0)" d="M138.7 255.3 c-0.2 -0.1 -8.3 -0.3 -18 -0.3 l-17.7 -0.1 0 -44.5 c0 -42.2 0.1 -44.7 2 -48.3 1 -2.1 3.2 -4.9 4.8 -6.2 3.9 -3.4 177 -100.5 180.5 -101.3 l2.7 -0.6 0 13.2 c0 18.7 -0.3 19.9 -5.1 22 l-3.9 1.7 0 7.5 c0 4.1 -0.4 7.7 -0.9 8 -0.4 0.3 -1.4 9 -2 19.3 -0.7 10.3 -1.9 28.3 -2.7 39.8 -0.7 11.6 -1.4 24.3 -1.4 28.3 l0 7.2 -7.8 0 c-4.4 0 -8.3 -0.5 -8.9 -1.1 -2 -2 -3.3 0.1 -3.3 5 l0 4.8 9.5 -0.5 9.5 -0.5 0 10.9 c0 6 -0.3 16.6 -0.7 23.7 l-0.6 12.7 -10.4 0 -10.3 0 0 -65.6 c0 -52.1 -0.3 -65.5 -1.2 -65.1 -0.7 0.2 -24.9 13.8 -53.8 30 l-52.5 29.6 -0.3 34.9 -0.2 35 -3.5 0.4 c-2 0.2 -3.7 0.3 -3.8 0.1z"/>
 </g>
 <g fill="#da800a">
  <path fill="url(#lg0)" d="M254.4 225.1 c-0.2 -0.2 -0.4 -22.9 -0.4 -50.4 0 -39.5 -0.3 -49.8 -1.2 -49.4 -0.7 0.2 -24.9 13.8 -53.8 30 l-52.5 29.6 -0.3 19.8 -0.2 19.8 -10.7 -0.2 c-5.9 -0.1 -11.3 -0.5 -12 -0.7 -0.7 -0.3 -1.5 -0.1 -1.8 0.4 -0.4 0.6 -1.1 1 -1.6 1 -0.6 0 -0.7 -0.4 -0.4 -1 0.3 -0.5 0.1 -1 -0.4 -1 -0.6 0 -1.1 0.6 -1.1 1.3 0 0.8 -0.4 0.7 -1 -0.3 -0.5 -0.8 -1 -1 -1 -0.4 0 0.7 -2.3 1 -6.3 1 l-6.2 -0.2 -0.3 -29.2 c-0.2 -27.4 -0.1 -29.5 1.7 -33.1 1.1 -2.1 3.3 -4.9 4.9 -6.2 3.9 -3.4 177 -100.5 180.5 -101.3 l2.7 -0.6 0 13.2 c0 18.7 -0.3 19.9 -5.1 22 l-3.9 1.7 0 7.5 c0 4.1 -0.4 7.7 -0.9 8 -0.4 0.3 -1.4 9 -2 19.3 -0.7 10.3 -1.9 28.3 -2.7 39.8 -0.7 11.6 -1.4 24.3 -1.4 28.3 l0 7.2 -7.8 0 c-4.4 0 -8.3 -0.5 -8.9 -1.1 -2 -2 -3.3 0.1 -3.3 5 l0 4.8 9.5 -0.5 9.5 -0.5 0 8.2 c0 6.4 -0.3 8.3 -1.5 8.7 -0.8 0.4 -2.2 0.1 -2.9 -0.5 -1 -0.8 -1.6 -0.9 -2.1 -0.2 -0.6 1 -14.1 1.1 -15.1 0.2z"/>
  <path fill="url(#lg0)" d="M315 217.3 l0 -8.3 6.9 0 c3.9 0 7.3 0.5 7.6 1 1.3 2 3.5 -1.2 3.5 -4.9 0 -4.7 -1.4 -7.1 -3.2 -5.3 -0.7 0.7 -3.9 1.2 -7.9 1.2 l-6.8 0 -0.5 -4.2 c-0.2 -2.4 -1 -13.3 -1.6 -24.3 -1.4 -26.3 -2.8 -47.5 -4 -61.1 -0.6 -6 -1 -13.1 -1 -15.7 0 -4.4 -0.2 -4.8 -4 -6.7 l-4 -2 0 -16 c0 -11.2 0.3 -16 1.1 -16 1.7 0 175.7 98 179.1 100.8 5.1 4.3 6.8 9.1 6.8 19.2 l0 9 -22.5 0 -22.5 0 -51.5 -29 c-28.3 -16 -51.7 -29 -52 -29 -0.3 0 -0.5 22.4 -0.5 49.8 l0 49.7 -11.5 0 -11.5 0 0 -8.2z"/>
  <path fill="url(#lg0)" d="M289.4 198.3 c0.3 -1.6 0.8 -8.6 1.1 -15.8 l0.7 -13 4.3 0.3 4.2 0.4 0.6 6.1 c2 19.9 2 24.7 0.3 24.7 -1.4 0 -1.6 -1.3 -1.6 -8.6 l0 -8.5 -2.7 0.3 c-2.8 0.3 -2.8 0.4 -3.1 8.6 -0.3 7.5 -0.5 8.2 -2.3 8.2 -1.7 0 -2 -0.5 -1.5 -2.7z"/>
 </g>
 <g fill="#f38e0b">
  <path fill="url(#lg0)" d="M320.4 190.1 c0.6 -0.8 0.1 -1 -1.6 -0.6 -4.7 1.1 -4.4 3.4 -7.9 -52 -0.5 -8.8 -1.4 -20.7 -1.9 -26.5 -0.6 -5.8 -1 -12.6 -1 -15.2 0 -4.5 -0.2 -4.9 -4 -6.8 l-4 -2 0 -16 c0 -11.2 0.3 -16 1.1 -16 1.7 0 175.7 98 179.1 100.8 5.1 4.3 6.8 9.1 6.8 19.2 l0 9 -22.5 0 -22.5 0 -51.5 -29 c-28.3 -15.9 -51.7 -29 -52 -29 -0.3 0 -0.5 14.3 -0.5 31.8 l0 31.8 -3.2 -0.2 c-1.8 -0.1 -3.9 0.2 -4.5 0.8 -0.9 0.7 -1.3 0.7 -1.3 -0.1 0 -0.6 -0.7 -1.1 -1.5 -1.1 -0.8 0 -1.5 0.6 -1.5 1.3 0 0.8 -0.3 0.8 -0.8 0.2 -0.8 -1.3 -2.2 -1.3 -4.1 -0.1 -1 0.6 -1.2 0.5 -0.7 -0.3z"/>
  <path fill="url(#lg0)" d="M106 189.1 c0 -0.7 -0.6 -1.1 -1.5 -0.7 -1.3 0.5 -1.5 -1.2 -1.5 -11 0 -12.7 1.3 -17 6.8 -21.5 3.9 -3.4 177 -100.5 180.5 -101.3 l2.7 -0.6 0 13.2 c0 18.7 -0.3 19.9 -5.1 22 l-3.9 1.7 0 7.5 c0 4.1 -0.4 7.7 -0.9 8 -0.4 0.3 -1.4 9 -2 19.3 -0.7 10.3 -1.9 28.3 -2.7 39.8 -0.7 11.6 -1.4 21.7 -1.4 22.7 0 1.4 -1.2 1.6 -10.7 1.3 -6 -0.2 -11.1 -0.4 -11.5 -0.4 -0.5 -0.1 -0.8 -14.5 -0.8 -32.1 0 -17.6 -0.3 -32 -0.6 -32 -0.7 0 -105.6 58.9 -106.7 60 -0.4 0.4 -0.9 1.6 -1 2.8 0 1.2 -0.6 1.8 -1.2 1.4 -1.6 -1 -4.9 -0.9 -6.4 0.2 -1.1 0.8 -1.3 0.8 -0.8 -0.1 0.6 -0.9 -0.5 -1.2 -4.2 -1 -2.7 0.1 -4.7 -0.1 -4.5 -0.5 0.6 -0.9 -3.7 0.2 -6.8 1.9 -0.4 0.2 -0.5 -0.4 -0.1 -1.4 0.6 -1.5 0.4 -1.6 -0.9 -0.6 -0.8 0.7 -1.8 1 -2.1 0.7 -1 -1.1 -7.7 -1.2 -7 -0.1 0.3 0.5 -0.4 0.6 -1.7 0.2 -1.5 -0.5 -2.5 -0.2 -3.1 0.6 -0.7 1.2 -0.9 1.2 -0.9 0z"/>
  <path fill="url(#lg0)" d="M290.4 183.9 c0.3 -3.4 0.6 -8 0.6 -10.3 l0 -4.1 4.4 0.3 4.3 0.4 0.7 6 c0.9 8.8 0.7 13.8 -0.4 13.8 -0.5 0 -1 -1.4 -1 -3.1 0 -2.7 -0.3 -3 -2.7 -2.7 -2.2 0.2 -2.9 0.9 -3.1 3.1 -0.2 1.7 -0.9 2.7 -1.9 2.7 -1.3 0 -1.5 -0.9 -0.9 -6.1z"/>
 </g>
</svg>